# xmcd
#
# Track frame offsets:
#	150
#	12348
#	26382
#	39959
#	53278
#	65904
#	79108
#	92343
#	104338
#	116184
#	128158
#	141008
#	153205
#	165294
#	176177
#	187518
#	198993
#	209974
#	222930
#	236400
#	249309
#	262751
#	275467
#	286982
#	298850
#
# Disc length: 4123 seconds
#
# Revision: 0
# Processed by: cddbd v1.5.1PL2 Copyright (c) Steve Scherf et al.
# Submitted via: EasyCDDAExtractor 9.1.3.1
#
DISCID=59101919
DTITLE=Various Artist - Rockin' This House (Chicago Blues Piano 1946-53) - Di
DTITLE=sc C (Memphis Slim and Roosevelt Sykes, 1947-54)
DYEAR=2006
DGENRE=Blues
TTITLE0=Memphis Slim - This Is My Lucky Day
TTITLE1=Memphis Slim - I Love My Baby
TTITLE2=Memphis Slim - Wish Me Well
TTITLE3=Memphis Slim - Four Years Of Torment
TTITLE4=Memphis Slim - Sassy Mae
TTITLE5=Memphis Slim - Blue And Lonesome
TTITLE6=Memphis Slim - Memphis Slim U.S.A.
TTITLE7=Memphis Slim - She's Alright
TTITLE8=Memphis Slim - Two Of A Kind
TTITLE9=Memphis Slim - Got To Find My Baby
TTITLE10=Memphis Slim - Blues All Around My Head
TTITLE11=Memphis Slim - Treat Me Like I Treat You
TTITLE12=Memphis Slim - My Country Gal
TTITLE13=Roosevelt Sykes - Lowland Blues
TTITLE14=Roosevelt Sykes - Savoy Boogie
TTITLE15=Roosevelt Sykes - Candy Man Blues
TTITLE16=Roosevelt Sykes - Why Should I Cry
TTITLE17=Roosevelt Sykes - Drivin' Wheel
TTITLE18=Roosevelt Sykes - Rock It
TTITLE19=Roosevelt Sykes - West Helena Blues
TTITLE20=Roosevelt Sykes - Mail Box Blues
TTITLE21=Roosevelt Sykes - Winter Time Blues
TTITLE22=Roosevelt Sykes - Blues 'N' Boogie
TTITLE23=Roosevelt Sykes - Green Onion Top
TTITLE24=Roosevelt Sykes - Wonderin' Blues
EXTD=
EXTT0=
EXTT1=
EXTT2=
EXTT3=
EXTT4=
EXTT5=
EXTT6=
EXTT7=
EXTT8=
EXTT9=
EXTT10=
EXTT11=
EXTT12=
EXTT13=
EXTT14=
EXTT15=
EXTT16=
EXTT17=
EXTT18=
EXTT19=
EXTT20=
EXTT21=
EXTT22=
EXTT23=
EXTT24=
PLAYORDER=
